<svg width="252" height="252" viewBox="0 0 252 252" fill="none" xmlns="http://www.w3.org/2000/svg">
<g clip-path="url(#clip0_906_4058)">
<rect width="252" height="252" fill="white"/>
<g opacity="0.72">
<path d="M146.289 42.0547L153.262 144.467H231.24L240.538 42.0547H146.289Z" fill="#E7E7E7" stroke="#C2C2C2" strokeWidth="0.742121"/>
<path d="M179.325 51.0033L178.106 54.7188H177.124L178.789 50.2369H179.414L179.325 51.0033ZM180.337 54.7188L179.115 51.0033L179.017 50.2369H179.648L181.322 54.7188H180.337ZM180.282 53.0504V53.7737H177.915V53.0504H180.282ZM184.619 53.9984V54.7188H182.363V53.9984H184.619ZM182.662 50.2369V54.7188H181.738V50.2369H182.662ZM188.03 53.9984V54.7188H185.774V53.9984H188.03ZM186.072 50.2369V54.7188H185.149V50.2369H186.072ZM191.967 50.2369V54.7188H191.047V50.2369H191.967ZM193.346 50.2369V50.9602H189.689V50.2369H193.346ZM195.362 51.0033L194.143 54.7188H193.161L194.827 50.2369H195.452L195.362 51.0033ZM196.375 54.7188L195.153 51.0033L195.054 50.2369H195.685L197.36 54.7188H196.375ZM196.32 53.0504V53.7737H193.952V53.0504H196.32ZM200.109 53.5459C200.109 53.4659 200.097 53.3941 200.072 53.3305C200.049 53.2648 200.006 53.2053 199.943 53.1519C199.879 53.0965 199.79 53.0421 199.675 52.9888C199.56 52.9354 199.411 52.88 199.229 52.8226C199.025 52.7569 198.832 52.683 198.65 52.6009C198.469 52.5188 198.309 52.4234 198.17 52.3147C198.032 52.2038 197.923 52.0756 197.843 51.9299C197.765 51.7842 197.726 51.6149 197.726 51.422C197.726 51.2352 197.767 51.0659 197.849 50.9141C197.932 50.7602 198.046 50.6288 198.194 50.5201C198.342 50.4092 198.516 50.3241 198.718 50.2646C198.921 50.205 199.143 50.1753 199.386 50.1753C199.716 50.1753 200.004 50.2348 200.25 50.3538C200.497 50.4729 200.688 50.636 200.823 50.8433C200.961 51.0505 201.029 51.2876 201.029 51.5543H200.112C200.112 51.423 200.084 51.3081 200.029 51.2096C199.976 51.109 199.893 51.03 199.783 50.9725C199.674 50.9151 199.536 50.8864 199.37 50.8864C199.21 50.8864 199.077 50.911 198.97 50.9602C198.863 51.0074 198.783 51.0721 198.73 51.1542C198.676 51.2342 198.65 51.3245 198.65 51.425C198.65 51.501 198.668 51.5697 198.705 51.6313C198.744 51.6929 198.802 51.7503 198.878 51.8037C198.954 51.857 199.047 51.9073 199.158 51.9545C199.269 52.0017 199.397 52.0479 199.542 52.093C199.787 52.1669 200.001 52.25 200.186 52.3424C200.373 52.4347 200.529 52.5383 200.654 52.6533C200.779 52.7682 200.873 52.8985 200.937 53.0442C201.001 53.1899 201.032 53.3551 201.032 53.5398C201.032 53.7347 200.994 53.9092 200.918 54.0631C200.843 54.217 200.733 54.3473 200.589 54.454C200.445 54.5607 200.274 54.6418 200.075 54.6972C199.876 54.7526 199.653 54.7803 199.407 54.7803C199.185 54.7803 198.967 54.7516 198.751 54.6941C198.536 54.6346 198.34 54.5453 198.163 54.4263C197.989 54.3073 197.849 54.1554 197.745 53.9707C197.64 53.786 197.588 53.5675 197.588 53.3151H198.514C198.514 53.4546 198.536 53.5726 198.579 53.6691C198.622 53.7655 198.683 53.8435 198.761 53.903C198.841 53.9625 198.935 54.0056 199.044 54.0323C199.155 54.059 199.276 54.0723 199.407 54.0723C199.567 54.0723 199.698 54.0497 199.801 54.0046C199.906 53.9595 199.983 53.8969 200.032 53.8168C200.083 53.7368 200.109 53.6465 200.109 53.5459ZM202.584 50.2369V54.7188H201.66V50.2369H202.584ZM205.268 50.2369L203.492 52.4501L202.467 53.5521L202.301 52.6779L202.993 51.7298L204.135 50.2369H205.268ZM204.218 54.7188L202.898 52.6471L203.581 52.0746L205.311 54.7188H204.218ZM208.001 53.5459C208.001 53.4659 207.989 53.3941 207.965 53.3305C207.942 53.2648 207.899 53.2053 207.835 53.1519C207.772 53.0965 207.682 53.0421 207.567 52.9888C207.453 52.9354 207.304 52.88 207.121 52.8226C206.918 52.7569 206.725 52.683 206.542 52.6009C206.362 52.5188 206.202 52.4234 206.062 52.3147C205.925 52.2038 205.816 52.0756 205.736 51.9299C205.658 51.7842 205.619 51.6149 205.619 51.422C205.619 51.2352 205.66 51.0659 205.742 50.9141C205.824 50.7602 205.939 50.6288 206.087 50.5201C206.235 50.4092 206.409 50.3241 206.61 50.2646C206.813 50.205 207.036 50.1753 207.278 50.1753C207.608 50.1753 207.897 50.2348 208.143 50.3538C208.389 50.4729 208.58 50.636 208.716 50.8433C208.853 51.0505 208.922 51.2876 208.922 51.5543H208.005C208.005 51.423 207.977 51.3081 207.921 51.2096C207.868 51.109 207.786 51.03 207.675 50.9725C207.566 50.9151 207.429 50.8864 207.263 50.8864C207.103 50.8864 206.969 50.911 206.863 50.9602C206.756 51.0074 206.676 51.0721 206.622 51.1542C206.569 51.2342 206.542 51.3245 206.542 51.425C206.542 51.501 206.561 51.5697 206.598 51.6313C206.637 51.6929 206.694 51.7503 206.77 51.8037C206.846 51.857 206.939 51.9073 207.05 51.9545C207.161 52.0017 207.289 52.0479 207.435 52.093C207.679 52.1669 207.894 52.25 208.078 52.3424C208.265 52.4347 208.421 52.5383 208.546 52.6533C208.671 52.7682 208.766 52.8985 208.83 53.0442C208.893 53.1899 208.925 53.3551 208.925 53.5398C208.925 53.7347 208.887 53.9092 208.811 54.0631C208.735 54.217 208.625 54.3473 208.482 54.454C208.338 54.5607 208.167 54.6418 207.968 54.6972C207.769 54.7526 207.546 54.7803 207.3 54.7803C207.078 54.7803 206.859 54.7516 206.644 54.6941C206.428 54.6346 206.233 54.5453 206.056 54.4263C205.882 54.3073 205.742 54.1554 205.637 53.9707C205.533 53.786 205.48 53.5675 205.48 53.3151H206.407C206.407 53.4546 206.428 53.5726 206.472 53.6691C206.515 53.7655 206.575 53.8435 206.653 53.903C206.733 53.9625 206.828 54.0056 206.936 54.0323C207.047 54.059 207.168 54.0723 207.3 54.0723C207.46 54.0723 207.591 54.0497 207.694 54.0046C207.798 53.9595 207.875 53.8969 207.925 53.8168C207.976 53.7368 208.001 53.6465 208.001 53.5459Z" fill="#8C8C8C"/>
<path d="M158.143 29.8047L146.289 42.0497H240.538L223.975 29.8047H158.143Z" fill="#E7E7E7" stroke="#C2C2C2" strokeWidth="0.742121"/>
<path d="M161.317 89.4436L159.833 70.8906L229.778 70.1484L227.737 89.4436H161.317Z" fill="#FDFDFD" stroke="#D3D3D3" strokeWidth="0.742121"/>
<path d="M229.778 70.3336L159.833 71.0758L162.801 66.4375H226.995L229.778 70.3336Z" fill="#EEEEEE" stroke="#D3D3D3" strokeWidth="0.742121"/>
<path d="M182.838 79.625L181.725 82.779H204.731L203.432 79.625" stroke="#989898" strokeWidth="0.742121"/>
<path d="M161.317 119.498L159.833 100.945L229.778 100.203L227.737 119.498H161.317Z" fill="#FDFDFD" stroke="#D3D3D3" strokeWidth="0.742121"/>
<path d="M229.778 100.388L159.833 101.13L162.801 96.4922H226.995L229.778 100.388Z" fill="#EEEEEE" stroke="#D3D3D3" strokeWidth="0.742121"/>
<path d="M182.838 109.672L181.725 112.826H204.731L203.432 109.672" stroke="#989898" strokeWidth="0.742121"/>
</g>
<path d="M188.154 204.336H149.832V239.226L207.792 236.748L188.154 204.336Z" fill="white" stroke="#514E53" strokeWidth="0.762628"/>
<rect x="157.84" y="145.609" width="72.4496" height="16.3965" fill="white"/>
<path d="M106.553 62.8624C106.553 85.6066 86.7494 104.044 62.3206 104.044C37.8917 104.044 18.0882 85.6066 18.0882 62.8624C18.0882 40.1183 37.8917 25.875 62.3206 25.875C86.7494 25.875 106.553 40.1183 106.553 62.8624Z" fill="#FFDC98"/>
<path d="M6.07675 40.3594L15.6096 46.2697" stroke="#FFD1C7" strokeWidth="1.63797"/>
<line x1="23.3191" y1="23.4774" x2="29.0388" y2="31.1036" stroke="#FFD1C7" strokeWidth="1.63797"/>
<line x1="45.2019" y1="15.0425" x2="46.7271" y2="22.6688" stroke="#FFD1C7" strokeWidth="1.63797"/>
<line x1="65.4219" y1="14.1489" x2="64.6593" y2="20.7363" stroke="#FFD1C7" strokeWidth="1.63797"/>
<line x1="82.1429" y1="24.4356" x2="84.8121" y2="17.1907" stroke="#FFD1C7" strokeWidth="1.63797"/>
<line x1="96.8059" y1="30.9222" x2="102.106" y2="25.3076" stroke="#FFD1C7" strokeWidth="1.63797"/>
<ellipse cx="106.553" cy="164.867" rx="47.4736" ry="52.812" fill="#6D696F"/>
<path d="M54.9933 142.496C60.57 137.838 64.5533 133.181 64.5533 128.523C65.8279 131.628 69.6881 133.578 71.2814 135.131L65.7524 138.944L54.9933 142.496Z" fill="#615C63"/>
<line x1="17.1349" y1="181.637" x2="35.8193" y2="181.637" stroke="black" strokeWidth="0.381314"/>
<path d="M165.008 149.879C174.367 162.798 176.674 174.832 168.685 180.62C160.696 186.407 145.437 183.756 136.078 170.837C126.719 157.918 122.564 135.738 130.553 129.951C138.541 124.164 155.648 136.96 165.008 149.879Z" fill="#615C63"/>
<path d="M144.684 164.866C144.684 175.501 132.101 192.511 113.226 189.27C93.8513 189.27 70.5188 175.501 70.5188 164.866C70.5188 154.231 86.2251 145.609 105.6 145.609C124.974 145.609 144.684 154.231 144.684 164.866Z" fill="white"/>
<path d="M119.899 159.143C117.582 157.929 112.533 155.516 111.097 160.422C109.662 165.328 118.274 169.748 122.759 171.345" stroke="#99A9FF" strokeWidth="3.43182"/>
<path d="M128.097 178.209C119.861 176.378 118.31 161.558 118.564 154.377L156.124 153.805C156.429 164.481 153.836 170.964 152.501 172.87C147.468 180.954 134.135 179.798 128.097 178.209Z" fill="#7C90FB"/>
<path d="M119.708 165.451L122.497 164.428C124.356 163.747 126.421 163.916 128.144 164.893V164.893C130.03 165.961 132.315 166.058 134.285 165.153L135.856 164.431C137.326 163.756 139.034 163.841 140.429 164.659L141.28 165.158C142.724 166.004 144.557 165.769 145.74 164.586L145.914 164.412C146.988 163.338 148.65 163.119 149.966 163.878V163.878C151.499 164.763 153.456 164.305 154.438 162.832L155.742 160.875" stroke="#E9EDFF" strokeWidth="0.762628"/>
<path d="M156.314 154.007C156.314 156.429 147.864 158.392 137.439 158.392C127.015 158.392 117.802 157.629 118.564 154.007C118.564 151.585 128.54 149.812 138.965 149.812C149.389 149.812 156.314 151.585 156.314 154.007Z" fill="#99A9FF"/>
<path d="M154.789 153.927C154.789 155.757 146.945 157.24 137.269 157.24C127.593 157.24 119.041 156.664 119.749 153.927C119.749 152.097 129.009 150.758 138.685 150.758C148.361 150.758 154.789 152.097 154.789 153.927Z" fill="#7C89D3"/>
<path d="M151.739 155.31C151.739 156.386 145.088 157.258 136.885 157.258C128.681 157.258 121.431 156.92 122.031 155.31C122.031 154.233 129.882 153.445 138.085 153.445C146.289 153.445 151.739 154.233 151.739 155.31Z" fill="#EFB9A3"/>
<path d="M120.852 170.193L123.556 169.174C125.367 168.492 127.388 168.661 129.06 169.635V169.635C130.889 170.7 133.126 170.797 135.041 169.893L136.557 169.177C137.987 168.501 139.66 168.586 141.014 169.402L141.825 169.89C143.231 170.738 145.036 170.505 146.181 169.328L146.478 169.023C147.442 168.031 148.959 167.83 150.149 168.535V168.535C151.654 169.428 153.601 168.844 154.366 167.27L155.171 165.617" stroke="#E9EDFF" strokeWidth="0.762628"/>
<ellipse cx="104.688" cy="166.45" rx="8.23511" ry="10.3692" transform="rotate(-10.2919 104.688 166.45)" fill="#474249"/>
<ellipse cx="104.878" cy="165.684" rx="8.23511" ry="10.3692" transform="rotate(-10.2919 104.878 165.684)" fill="#615C63"/>
<ellipse cx="107.751" cy="158.056" rx="4.29907" ry="2.77757" transform="rotate(-13.2314 107.751 158.056)" fill="#514E53"/>
<ellipse cx="111.183" cy="161.876" rx="4.29907" ry="2.77757" transform="rotate(-13.2314 111.183 161.876)" fill="#514E53"/>
<ellipse cx="111.564" cy="166.079" rx="4.29907" ry="2.77757" transform="rotate(-13.2314 111.564 166.079)" fill="#514E53"/>
<ellipse cx="111.773" cy="170.225" rx="3.80526" ry="2.45853" transform="rotate(-13.2314 111.773 170.225)" fill="#514E53"/>
<ellipse rx="8.23511" ry="10.3692" transform="matrix(-0.98391 -0.178663 -0.178663 0.98391 156.191 175.551)" fill="#474249"/>
<ellipse rx="8.23511" ry="10.3692" transform="matrix(-0.98391 -0.178663 -0.178663 0.98391 155.593 175.958)" fill="#615C63"/>
<ellipse rx="4.29907" ry="2.77757" transform="matrix(-0.973454 -0.228884 -0.228884 0.973454 153.127 167.212)" fill="#514E53"/>
<ellipse rx="4.29907" ry="2.77757" transform="matrix(-0.973454 -0.228884 -0.228884 0.973454 149.696 171.025)" fill="#514E53"/>
<ellipse rx="4.29907" ry="2.77757" transform="matrix(-0.973454 -0.228884 -0.228884 0.973454 149.314 175.204)" fill="#514E53"/>
<ellipse rx="3.80526" ry="2.45853" transform="matrix(-0.973454 -0.228884 -0.228884 0.973454 149.105 179.366)" fill="#514E53"/>
<rect x="14.847" y="181.828" width="165.109" height="35.8435" fill="white"/>
<line x1="97.5922" y1="181.637" x2="197.878" y2="181.637" stroke="black" strokeWidth="0.381314"/>
<path d="M181.29 200.125H142.968V235.015L200.928 232.537L181.29 200.125Z" fill="white" stroke="#514E53" strokeWidth="0.762628"/>
<path d="M133.626 141.016L131.845 142.797C131.249 143.393 131.249 144.358 131.845 144.954L133.501 146.61C134.097 147.206 134.097 148.171 133.501 148.767L132.989 149.279C132.393 149.875 132.393 150.841 132.989 151.436L135.342 153.79" stroke="white" strokeWidth="0.762628"/>
<path d="M140.871 137.984L139.09 139.766C138.494 140.361 138.494 141.327 139.09 141.923L140.746 143.579C141.342 144.174 141.342 145.14 140.746 145.736L140.234 146.248C139.638 146.844 139.638 147.809 140.234 148.405L142.587 150.758" stroke="white" strokeWidth="0.762628"/>
<path d="M178.503 226.229L178.251 222.714L178.709 222.681L178.962 226.196L178.503 226.229ZM177.373 226.31L177.346 225.928L180.062 225.733L180.089 226.115L177.373 226.31ZM174.095 224.89L174.079 224.668C174.06 224.404 174.076 224.165 174.127 223.951C174.178 223.738 174.26 223.553 174.373 223.397C174.487 223.242 174.628 223.12 174.796 223.03C174.963 222.94 175.153 222.888 175.367 222.872C175.575 222.857 175.768 222.882 175.947 222.947C176.125 223.012 176.283 223.113 176.421 223.25C176.557 223.388 176.667 223.559 176.751 223.763C176.835 223.967 176.887 224.201 176.906 224.465L176.922 224.687C176.941 224.951 176.924 225.19 176.871 225.402C176.817 225.616 176.733 225.801 176.617 225.957C176.503 226.114 176.362 226.237 176.195 226.327C176.027 226.416 175.839 226.469 175.631 226.484C175.417 226.499 175.221 226.474 175.044 226.409C174.864 226.345 174.707 226.243 174.573 226.103C174.437 225.966 174.328 225.795 174.247 225.591C174.164 225.388 174.114 225.154 174.095 224.89ZM174.54 224.635L174.556 224.862C174.571 225.071 174.606 225.255 174.661 225.413C174.715 225.571 174.786 225.701 174.876 225.805C174.966 225.909 175.073 225.984 175.196 226.032C175.318 226.08 175.453 226.098 175.603 226.088C175.748 226.077 175.877 226.04 175.99 225.975C176.102 225.91 176.196 225.82 176.272 225.705C176.346 225.589 176.4 225.45 176.433 225.285C176.467 225.121 176.476 224.935 176.461 224.725L176.445 224.498C176.43 224.288 176.394 224.102 176.337 223.943C176.28 223.785 176.206 223.654 176.114 223.549C176.021 223.446 175.915 223.37 175.795 223.322C175.673 223.274 175.54 223.255 175.395 223.266C175.244 223.277 175.112 223.315 174.998 223.379C174.885 223.444 174.792 223.534 174.719 223.649C174.645 223.766 174.593 223.907 174.562 224.071C174.532 224.236 174.525 224.424 174.54 224.635ZM172.312 223.14L173.046 223.088L173.068 223.467L172.339 223.519C172.088 223.537 171.882 223.605 171.722 223.721C171.563 223.84 171.448 223.997 171.378 224.193C171.306 224.39 171.28 224.617 171.298 224.873L171.313 225.088C171.328 225.289 171.365 225.466 171.424 225.619C171.484 225.773 171.564 225.901 171.665 226.002C171.767 226.104 171.887 226.179 172.026 226.226C172.164 226.273 172.319 226.29 172.493 226.277L173.285 226.22L173.313 226.602L172.521 226.659C172.291 226.675 172.078 226.652 171.882 226.588C171.687 226.526 171.516 226.427 171.368 226.292C171.22 226.159 171.101 225.993 171.012 225.794C170.924 225.596 170.87 225.371 170.852 225.116L170.837 224.906C170.819 224.652 170.839 224.42 170.898 224.21C170.958 224.002 171.053 223.821 171.182 223.668C171.31 223.515 171.47 223.393 171.661 223.301C171.85 223.212 172.067 223.158 172.312 223.14ZM173.049 226.621L172.797 223.106L173.263 223.072L173.515 226.587L173.049 226.621ZM169 226.599L169.934 223.311L170.409 223.277L169.322 226.888L169.015 226.91L169 226.599ZM167.795 223.465L169.191 226.585L169.22 226.896L168.914 226.918L167.317 223.499L167.795 223.465ZM167.948 224.762L167.921 224.38L169.896 224.239L169.923 224.62L167.948 224.762ZM167.164 227.044L166.124 225.344L165.336 227.175L164.807 227.213L165.861 224.924L165.767 223.611L166.233 223.577L166.327 224.891L167.697 227.005L167.164 227.044ZM163.986 227.466L163.964 227.157C163.957 227.06 163.966 226.957 163.992 226.847C164.017 226.738 164.057 226.632 164.113 226.527C164.168 226.425 164.238 226.333 164.321 226.253L164.589 226.411C164.521 226.522 164.472 226.635 164.441 226.749C164.409 226.864 164.398 226.987 164.407 227.118L164.43 227.434L163.986 227.466ZM161.304 224.824C161.31 224.906 161.328 224.978 161.358 225.039C161.387 225.102 161.434 225.156 161.501 225.203C161.566 225.25 161.655 225.293 161.767 225.332C161.879 225.371 162.019 225.409 162.188 225.445C162.366 225.484 162.527 225.53 162.671 225.583C162.816 225.637 162.941 225.702 163.047 225.777C163.152 225.851 163.236 225.94 163.296 226.043C163.357 226.145 163.392 226.265 163.402 226.401C163.412 226.538 163.393 226.667 163.345 226.786C163.297 226.906 163.224 227.013 163.125 227.106C163.025 227.2 162.904 227.277 162.761 227.336C162.618 227.394 162.456 227.43 162.276 227.443C162.012 227.462 161.784 227.428 161.594 227.339C161.401 227.253 161.251 227.132 161.143 226.976C161.035 226.822 160.974 226.653 160.961 226.47L161.425 226.437C161.434 226.569 161.471 226.683 161.534 226.781C161.598 226.88 161.689 226.954 161.807 227.004C161.926 227.055 162.073 227.074 162.248 227.062C162.414 227.05 162.549 227.015 162.653 226.958C162.758 226.9 162.833 226.826 162.88 226.737C162.926 226.648 162.944 226.549 162.937 226.44C162.931 226.366 162.911 226.299 162.876 226.24C162.84 226.183 162.787 226.131 162.717 226.084C162.646 226.038 162.557 225.996 162.451 225.96C162.343 225.924 162.215 225.891 162.068 225.861C161.864 225.819 161.687 225.769 161.537 225.71C161.388 225.652 161.263 225.582 161.163 225.502C161.062 225.423 160.985 225.331 160.932 225.225C160.878 225.12 160.846 225 160.836 224.863C160.825 224.72 160.845 224.588 160.895 224.468C160.944 224.348 161.02 224.243 161.122 224.153C161.224 224.063 161.349 223.99 161.497 223.934C161.644 223.88 161.809 223.846 161.995 223.833C162.157 223.821 162.319 223.833 162.48 223.866C162.639 223.9 162.787 223.957 162.922 224.038C163.055 224.119 163.166 224.223 163.252 224.349C163.338 224.478 163.386 224.629 163.399 224.805L162.936 224.838C162.927 224.717 162.896 224.615 162.843 224.532C162.79 224.45 162.722 224.384 162.637 224.333C162.551 224.283 162.455 224.247 162.35 224.227C162.244 224.209 162.134 224.204 162.022 224.212C161.859 224.224 161.723 224.256 161.614 224.309C161.504 224.363 161.424 224.433 161.372 224.521C161.318 224.609 161.296 224.71 161.304 224.824Z" fill="#615C63"/>
<path d="M71.2181 172.817C63.2417 186.633 49.3035 194.421 41.4304 189.876C33.5574 185.33 34.7308 170.172 42.7072 156.357C50.6837 142.541 68.5829 129.32 76.456 133.866C84.329 138.411 79.1946 159.002 71.2181 172.817Z" fill="#615C63"/>
<path d="M72.5796 191.134C55.6738 195.664 39.9949 191.968 37.5596 182.879C35.1243 173.791 46.8548 162.751 63.7605 158.221C80.6662 153.691 104.665 156.787 107.101 165.876C109.536 174.964 89.4853 186.604 72.5796 191.134Z" fill="#474249"/>
<path d="M73.7235 193.048C56.8178 197.578 41.1389 193.882 38.7036 184.793C36.2683 175.705 47.9988 164.665 64.9045 160.135C81.8102 155.605 105.809 158.701 108.245 167.79C110.68 176.878 90.6292 188.518 73.7235 193.048Z" fill="#615C63"/>
<path d="M145.508 57.8602C145.508 60.7778 144.215 64.1501 142.103 66.7943C139.989 69.4392 137.118 71.281 134.004 71.281C130.846 71.281 127.726 69.7567 125.387 67.4697C123.045 65.1806 121.542 62.1818 121.542 59.2981C121.542 56.4144 123.045 53.4156 125.387 51.1266C127.726 48.8396 130.846 47.3153 134.004 47.3153C140.396 47.3153 145.508 52.0732 145.508 57.8602Z" fill="#777677" stroke="#3B2E35" strokeWidth="0.95863"/>
<path d="M143.111 59.5683C143.111 64.4859 138.571 70.7953 132.972 70.7953C127.372 70.7953 122.021 65.6473 122.021 60.7297C122.021 55.812 127.372 50.6641 132.972 50.6641C138.571 50.6641 143.111 54.6506 143.111 59.5683Z" fill="#615C63"/>
<path d="M138.318 61.8289C138.318 65.3415 134.467 69.8482 130.649 69.8482C126.831 69.8482 123.938 67.609 123.938 64.0964C123.938 60.5838 127.587 55.4688 131.405 55.4688C135.223 55.4688 138.318 58.3163 138.318 61.8289Z" fill="#3B2E35"/>
<path d="M56.355 58.2842C56.355 61.324 57.6509 64.8323 59.7653 67.5803C61.8818 70.3311 64.7521 72.2396 67.8585 72.2396C71.0099 72.2396 74.1287 70.6596 76.4695 68.2829C78.8114 65.9051 80.3207 62.7847 80.3207 59.7774C80.3207 56.7702 78.8114 53.6498 76.4695 51.272C74.1287 48.8953 71.0099 47.3153 67.8585 47.3153C61.4844 47.3153 56.355 52.2466 56.355 58.2842Z" fill="#777677" stroke="#3B2E35" strokeWidth="0.95863"/>
<path d="M58.7516 60.067C58.7516 65.1738 63.2911 71.7258 68.8909 71.7258C74.4907 71.7258 79.8414 66.3799 79.8414 61.2731C79.8414 56.1663 74.4907 50.8203 68.8909 50.8203C63.2911 50.8203 58.7516 54.9602 58.7516 60.067Z" fill="#615C63"/>
<path d="M63.5447 62.4016C63.5447 66.0493 67.3956 70.7294 71.2137 70.7294C75.0317 70.7294 77.9241 68.4041 77.9241 64.7564C77.9241 61.1087 74.2759 55.7969 70.4578 55.7969C66.6398 55.7969 63.5447 58.7539 63.5447 62.4016Z" fill="#3B2E35"/>
<path d="M147.828 106.099C147.828 117.881 142.558 126.469 134.025 132.131C125.47 137.807 113.61 140.555 100.452 140.555C87.294 140.555 75.4336 137.807 66.8785 132.131C58.3456 126.469 53.0764 117.881 53.0764 106.099C53.0764 94.2812 58.3782 81.4843 66.9745 71.6395C75.5691 61.7967 87.4102 54.9559 100.452 54.9559C113.494 54.9559 125.335 61.7967 133.929 71.6395C142.526 81.4843 147.828 94.2812 147.828 106.099Z" fill="#F5F5F5" stroke="#3C3036" strokeWidth="0.95863"/>
<path d="M146.9 102.926C149.943 125.181 126.078 134.938 100.392 134.938C74.7061 134.938 51.7103 124.138 53.8836 102.926C56.0569 81.7149 74.7061 55.625 100.392 55.625C126.078 55.625 143.858 80.6713 146.9 102.926Z" fill="white"/>
<ellipse cx="80.6825" cy="100.408" rx="5.75178" ry="2.39657" transform="rotate(-13.8019 80.6825 100.408)" fill="#E9EDFF"/>
<ellipse rx="5.75178" ry="2.39657" transform="matrix(-0.971127 -0.238565 -0.238565 0.971127 128.061 100.408)" fill="#E9EDFF"/>
<path d="M115.496 110.971C115.38 113.216 113.796 115.537 111.349 117.326C108.917 119.105 105.7 120.304 102.451 120.343C98.603 120.144 95.1892 119.001 92.7794 117.336C90.3604 115.665 89.0076 113.514 89.1215 111.292C89.2355 109.07 90.8013 107.069 93.3785 105.654C95.9489 104.243 99.4667 103.455 103.32 103.653C108.106 103.898 111.216 104.625 113.093 105.835C114.02 106.433 114.642 107.146 115.023 107.981C115.405 108.82 115.555 109.808 115.496 110.971Z" fill="#524E54" stroke="#3B2E35" strokeWidth="0.835648"/>
<path d="M115.13 109.936C115.034 111.81 113.522 113.774 111.119 115.297C108.737 116.805 105.573 117.816 102.362 117.828C98.5647 117.632 95.1899 116.627 92.804 115.182C90.399 113.726 89.091 111.887 89.1857 110.04C89.2804 108.193 90.7696 106.498 93.311 105.295C95.8348 104.101 99.299 103.446 103.101 103.641C107.817 103.883 110.892 104.528 112.753 105.581C113.673 106.101 114.283 106.715 114.655 107.419C115.028 108.125 115.181 108.955 115.13 109.936Z" fill="#615C63" stroke="#3B2E35" strokeWidth="0.835648"/>
<ellipse cx="101.832" cy="108.17" rx="7.93866" ry="2.50694" transform="rotate(-5.40218 101.832 108.17)" fill="#918D92"/>
<line x1="101.99" y1="120.384" x2="101.744" y2="125.171" stroke="#3B2E35" strokeWidth="0.95863"/>
<path d="M88.6313 123.719C95.3042 127.505 105.981 130.365 116.683 122.168" stroke="#3B2E35" strokeWidth="0.95863"/>
<line x1="75.0946" y1="79.45" x2="87.678" y2="79.45" stroke="#3B2E35" strokeWidth="0.381314"/>
<path d="M70.6167 86.0196C70.6167 88.7901 71.7085 90.9234 73.6002 92.377C75.5071 93.8423 78.2688 94.6473 81.6409 94.6473C88.2555 94.6473 92.5386 89.5719 94.1419 85.8308C94.4584 85.0925 94.6277 83.7412 94.5568 82.0763C94.4866 80.4295 94.1841 78.5387 93.6085 76.7542C92.442 73.1382 90.2466 70.1903 86.8083 70.1903C82.32 70.1903 78.2722 72.7127 75.3266 76.0012C72.3717 79.3001 70.6167 83.268 70.6167 86.0196Z" fill="#615C63" stroke="#3C3036" strokeWidth="0.95863"/>
<path d="M75.9001 82.9064C75.9001 87.0604 79.1753 90.4035 83.1859 90.4035C87.1965 90.4035 90.4717 87.0604 90.4717 82.9064C90.4717 78.6596 87.8764 75.2186 83.9486 75.2186C81.9416 75.2186 79.9225 76.1015 78.4025 77.5223C76.8837 78.942 75.9001 80.8631 75.9001 82.9064Z" fill="#F5F5F5" stroke="#3B2E35" strokeWidth="1.06227"/>
<ellipse rx="3.71794" ry="3.18681" transform="matrix(-1 0 0 1 83.3122 83.6087)" fill="#3B2E35"/>
<path d="M83.9486 75.8248C77.7711 75.5218 77.0732 80.9175 76.6366 82.8987L79.2783 82.1985C81.8392 81.5198 84.5327 81.5198 87.0936 82.1985L89.7353 82.8987C89.4733 81.0976 89.3909 76.0916 83.9486 75.8248Z" fill="#615C63" stroke="#3B2E35" strokeWidth="0.845076"/>
<path d="M129.928 86.0196C129.928 88.7901 128.836 90.9234 126.945 92.377C125.038 93.8423 122.276 94.6473 118.904 94.6473C112.289 94.6473 108.006 89.5719 106.403 85.8308C106.087 85.0925 105.917 83.7412 105.988 82.0763C106.058 80.4295 106.361 78.5387 106.936 76.7542C108.103 73.1382 110.298 70.1903 113.737 70.1903C118.225 70.1903 122.273 72.7127 125.218 76.0012C128.173 79.3001 129.928 83.268 129.928 86.0196Z" fill="#615C63" stroke="#3C3036" strokeWidth="0.95863"/>
<path d="M124.645 82.9064C124.645 87.0604 121.37 90.4035 117.359 90.4035C113.348 90.4035 110.073 87.0604 110.073 82.9064C110.073 78.6596 112.669 75.2186 116.596 75.2186C118.603 75.2186 120.622 76.1015 122.142 77.5223C123.661 78.942 124.645 80.8631 124.645 82.9064Z" fill="#F5F5F5" stroke="#3B2E35" strokeWidth="1.06227"/>
<ellipse cx="117.233" cy="83.6087" rx="3.71794" ry="3.18681" fill="#3B2E35"/>
<path d="M116.596 75.8248C122.774 75.5218 123.472 80.9175 123.908 82.8987L121.267 82.1985C118.706 81.5198 116.012 81.5198 113.451 82.1985L110.81 82.8987C111.072 81.0976 111.154 76.0916 116.596 75.8248Z" fill="#615C63" stroke="#3B2E35" strokeWidth="0.845076"/>
</g>
<defs>
<clipPath id="clip0_906_4058">
<rect width="252" height="252" fill="white"/>
</clipPath>
</defs>
</svg>
